FILE "play-sounds-cdda.iso" BINARY
  TRACK 01 MODE2/2352
    INDEX 01 00:00:00
  TRACK 02 AUDIO
    INDEX 00 00:14:24
    INDEX 01 00:16:24
  TRACK 03 AUDIO
    INDEX 00 00:36:24
    INDEX 01 00:38:24
